<svg id="Layer_1" data-name="Layer 1" xmlns="http://www.w3.org/2000/svg" viewBox="0 0 1299.79 149.6"><defs><style>.cls-1{fill:#fff;}</style></defs><path class="cls-1" d="M59.25,456.41l22.6-145.19h10.4c20,43.6,39.8,88,59.4,132.19h.4c2.8-18.79,5.8-38.2,8.8-57.6l11.6-74.59h8.6l-23.4,145.19h-9c-20.4-44.2-43.4-94.79-60.2-132.39h-.4c-1.2,8.4-5.4,35.4-7.6,49.2l-13.4,83.19Z" transform="translate(-59.25 -309.02)"/><path class="cls-1" d="M197.05,405c0-23,7.2-51.39,21.2-71,9.6-13.4,24.4-25,46.8-25,30.2,0,42.8,20.8,42.8,51,0,23.6-7.6,51.39-20.8,71-10.2,15.2-25.4,27.6-47.4,27.6C210.45,458.61,197.05,436.61,197.05,405Zm86.6,22c11-16.8,15.6-40.39,15.6-59.59,0-28.6-10-48-40.8-48-16.4,0-28,5.4-36.8,18.8-10.6,16-16,41-16,61.2,0,28.79,10.8,49.19,39,49.19C261.45,448.61,274.25,441.41,283.65,427Z" transform="translate(-59.25 -309.02)"/><path class="cls-1" d="M423,405.42c-2.59,15.79-8,28-17,37-9.4,9.6-22.4,16.2-40.2,16.2-21.6,0-37.4-9.8-37.4-34.2a88.27,88.27,0,0,1,1.2-14l15.6-99.19h8.6l-15.2,94.39a92.63,92.63,0,0,0-1.2,12.4c0,22,13.6,31,35.8,31,12,0,21.8-2.8,28.8-9.8s10.6-16.8,12.4-28.59L430,311.22h8.21Z" transform="translate(-59.25 -309.02)"/><path class="cls-1" d="M513.84,311.22c23.6,0,41.2,6.6,41.2,31,0,13-5,30.4-17.2,42.2a50.84,50.84,0,0,1-22.6,12.39c3.8,8,8.2,18.2,10.4,22.81L542,456.41h-11.2L517,422c-4.8-11.8-7-17.59-9.2-23.59a54.75,54.75,0,0,1-10,.79h-29.4l-9.2,57.2h-7.8l22.6-145c8.8-.2,20.6-.2,30.2-.2Zm-44,78.8c11.4,0,21.6,0,33.2-.21,15.8-.39,25.2-2.59,31.8-9.19,7.8-7.8,11.6-20.8,11.6-31.4,0-21-14.8-28-37-28h-7c-7.2,0-14.2,0-21.6-.2-1,7.2-2,13.8-3.2,21.2Z" transform="translate(-59.25 -309.02)"/><path class="cls-1" d="M633.64,311.22h11.8c10.6,44.4,20.8,89.2,30.4,132.59h.4c23.8-44.2,48-88.79,72.4-132.59H761l-23.4,145.19h-7.8l14.6-93.59c2-12.8,4.6-28.8,6-36.8H750c-23.4,43.2-47.8,87-72.2,130.39h-7.4c-10.6-43.6-21.2-87.19-30.8-130.39h-.4c-1.2,8.2-4.2,27.4-5.8,37.2l-15,93.19H611Z" transform="translate(-59.25 -309.02)"/><path class="cls-1" d="M777,405c0-23,7.2-51.39,21.2-71,9.6-13.4,24.4-25,46.8-25,30.2,0,42.8,20.8,42.8,51,0,23.6-7.6,51.39-20.8,71-10.2,15.2-25.4,27.6-47.4,27.6C790.44,458.61,777,436.61,777,405Zm86.6,22c11-16.8,15.6-40.39,15.6-59.59,0-28.6-10-48-40.8-48-16.4,0-28,5.4-36.8,18.8-10.6,16-16,41-16,61.2,0,28.79,10.8,49.19,39,49.19C841.44,448.61,854.24,441.41,863.64,427Z" transform="translate(-59.25 -309.02)"/><path class="cls-1" d="M960.64,356.42c-10.6,9.4-22.2,19.6-28.6,25,5.8,7,13.8,16.79,23.2,28.79l36.4,46.2H979l-31.6-42.2c-10.8-14.4-18.2-24.4-23.8-32h-.2l-12,74.19h-7.8l22.6-145.19h8.6l-11.2,69.6h.2c9.6-9.2,19.4-18.4,31.6-29.6l43.2-40h13Z" transform="translate(-59.25 -309.02)"/><path class="cls-1" d="M1034.24,456.41c-8.2,0-16.2,0-24.6-.2l22.6-144.79c8-.2,18.8-.2,27.2-.2h11.2c31.4,0,48.6,16,48.6,51.4,0,23.6-7.6,50.59-23.2,69.39-12,14.4-29,24.4-52,24.4Zm58-27.8c11.8-14.2,18.4-37.4,18.4-59.19,0-34.4-16.4-48-45-48h-6.8c-6.6,0-13.2,0-19.8-.2-.8,6-1.8,12.4-3,19.8l-13.6,84.39c-1.2,7.8-2.4,15-3.6,21.4,6.8-.2,14.8-.2,21-.2h10C1066.84,446.61,1081.44,441.61,1092.24,428.61Z" transform="translate(-59.25 -309.02)"/><path class="cls-1" d="M1217.64,456.41,1210,414c-11.4.2-19.4.2-31,.2-9.2,0-21.4,0-32.4-.2l-21.2,42.4H1115l74.6-145.19h9.8L1228,456.41Zm-66.4-51.8c10.8-.19,17.4-.19,29-.19,9.4,0,21.4,0,28,.19L1200,359c-2.2-12.2-4.6-25.8-6.8-38.2h-.4c-5.8,12-12.6,25.8-18,36.6Z" transform="translate(-59.25 -309.02)"/><path class="cls-1" d="M1274,456.41c-8.2,0-16.2,0-24.6-.2L1272,311.42c8-.2,18.8-.2,27.2-.2h11.2c31.4,0,48.6,16,48.6,51.4,0,23.6-7.6,50.59-23.2,69.39-12,14.4-29,24.4-52,24.4Zm58-27.8c11.8-14.2,18.4-37.4,18.4-59.19,0-34.4-16.4-48-45-48h-6.8c-6.6,0-13.2,0-19.8-.2-.8,6-1.8,12.4-3,19.8l-13.6,84.39c-1.2,7.8-2.4,15-3.6,21.4,6.8-.2,14.8-.2,21-.2h10C1306.64,446.61,1321.24,441.61,1332,428.61Z" transform="translate(-59.25 -309.02)"/></svg>